<svg width="1440" height="920" viewBox="0 0 1440 920" fill="none" xmlns="http://www.w3.org/2000/svg">
  <defs>
    <filter id="shadow" x="-20%" y="-20%" width="140%" height="140%">
      <feDropShadow dx="0" dy="18" stdDeviation="18" flood-color="#0f172a" flood-opacity="0.16"/>
    </filter>
    <linearGradient id="bg" x1="0" y1="0" x2="1440" y2="920" gradientUnits="userSpaceOnUse">
      <stop stop-color="#f5f7f8"/>
      <stop offset="1" stop-color="#eef5f0"/>
    </linearGradient>
    <linearGradient id="browser" x1="80" y1="270" x2="300" y2="490" gradientUnits="userSpaceOnUse">
      <stop stop-color="#ffffff"/>
      <stop offset="1" stop-color="#e9f5ef"/>
    </linearGradient>
    <linearGradient id="react" x1="380" y1="200" x2="660" y2="480" gradientUnits="userSpaceOnUse">
      <stop stop-color="#e7fbff"/>
      <stop offset="1" stop-color="#ffffff"/>
    </linearGradient>
    <linearGradient id="php" x1="790" y1="520" x2="1070" y2="800" gradientUnits="userSpaceOnUse">
      <stop stop-color="#f0edff"/>
      <stop offset="1" stop-color="#ffffff"/>
    </linearGradient>
    <linearGradient id="mysql" x1="1150" y1="490" x2="1360" y2="760" gradientUnits="userSpaceOnUse">
      <stop stop-color="#e5f2ff"/>
      <stop offset="1" stop-color="#ffffff"/>
    </linearGradient>
    <marker id="arrow" viewBox="0 0 14 14" refX="12" refY="7" markerWidth="14" markerHeight="14" orient="auto-start-reverse">
      <path d="M1 1L13 7L1 13V1Z" fill="#334155"/>
    </marker>
    <marker id="arrowGreen" viewBox="0 0 14 14" refX="12" refY="7" markerWidth="14" markerHeight="14" orient="auto-start-reverse">
      <path d="M1 1L13 7L1 13V1Z" fill="#16a34a"/>
    </marker>
    <symbol id="icon-nginx" viewBox="0 0 24 24">
      <path fill="#009639" d="M12 0L1.605 6v12L12 24l10.395-6V6L12 0zm6 16.59c0 .705-.646 1.29-1.529 1.29-.631 0-1.351-.255-1.801-.81l-6-7.141v6.66c0 .721-.57 1.29-1.274 1.29H7.32c-.721 0-1.29-.6-1.29-1.29V7.41c0-.705.63-1.29 1.5-1.29.646 0 1.38.255 1.83.81l5.97 7.141V7.41c0-.721.6-1.29 1.29-1.29h.075c.72 0 1.29.6 1.29 1.29v9.18H18z"/>
    </symbol>
    <symbol id="icon-react" viewBox="0 0 24 24">
      <path fill="#61DAFB" d="M14.23 12.004a2.236 2.236 0 0 1-2.235 2.236 2.236 2.236 0 0 1-2.236-2.236 2.236 2.236 0 0 1 2.235-2.236 2.236 2.236 0 0 1 2.236 2.236zm2.648-10.69c-1.346 0-3.107.96-4.888 2.622-1.78-1.653-3.542-2.602-4.887-2.602-.41 0-.783.093-1.106.278-1.375.793-1.683 3.264-.973 6.365C1.98 8.917 0 10.42 0 12.004c0 1.59 1.99 3.097 5.043 4.03-.704 3.113-.39 5.588.988 6.38.32.187.69.275 1.102.275 1.345 0 3.107-.96 4.888-2.624 1.78 1.654 3.542 2.603 4.887 2.603.41 0 .783-.09 1.106-.275 1.374-.792 1.683-3.263.973-6.365C22.02 15.096 24 13.59 24 12.004c0-1.59-1.99-3.097-5.043-4.032.704-3.11.39-5.587-.988-6.38-.318-.184-.688-.277-1.092-.278zm-.005 1.09v.006c.225 0 .406.044.558.127.666.382.955 1.835.73 3.704-.054.46-.142.945-.25 1.44-.96-.236-2.006-.417-3.107-.534-.66-.905-1.345-1.727-2.035-2.447 1.592-1.48 3.087-2.292 4.105-2.295zm-9.77.02c1.012 0 2.514.808 4.11 2.28-.686.72-1.37 1.537-2.02 2.442-1.107.117-2.154.298-3.113.538-.112-.49-.195-.964-.254-1.42-.23-1.868.054-3.32.714-3.707.19-.09.4-.127.563-.132zm4.882 3.05c.455.468.91.992 1.36 1.564-.44-.02-.89-.034-1.345-.034-.46 0-.915.01-1.36.034.44-.572.895-1.096 1.345-1.565zM12 8.1c.74 0 1.477.034 2.202.093.406.582.802 1.203 1.183 1.86.372.64.71 1.29 1.018 1.946-.308.655-.646 1.31-1.013 1.95-.38.66-.773 1.288-1.18 1.87-.728.063-1.466.098-2.21.098-.74 0-1.477-.035-2.202-.093-.406-.582-.802-1.204-1.183-1.86-.372-.64-.71-1.29-1.018-1.946.303-.657.646-1.313 1.013-1.954.38-.66.773-1.286 1.18-1.868.728-.064 1.466-.098 2.21-.098zm-3.635.254c-.24.377-.48.763-.704 1.16-.225.39-.435.782-.635 1.174-.265-.656-.49-1.31-.676-1.947.64-.15 1.315-.283 2.015-.386zm7.26 0c.695.103 1.365.23 2.006.387-.18.632-.405 1.282-.66 1.933-.2-.39-.41-.783-.64-1.174-.225-.392-.465-.774-.705-1.146zm3.063.675c.484.15.944.317 1.375.498 1.732.74 2.852 1.708 2.852 2.476-.005.768-1.125 1.74-2.857 2.475-.42.18-.88.342-1.355.493-.28-.958-.646-1.956-1.1-2.98.45-1.017.81-2.01 1.085-2.964zm-13.395.004c.278.96.645 1.957 1.1 2.98-.45 1.017-.812 2.01-1.086 2.964-.484-.15-.944-.318-1.37-.5-1.732-.737-2.852-1.706-2.852-2.474 0-.768 1.12-1.742 2.852-2.476.42-.18.88-.342 1.356-.494zm11.678 4.28c.265.657.49 1.312.676 1.948-.64.157-1.316.29-2.016.39.24-.375.48-.762.705-1.158.225-.39.435-.788.636-1.18zm-9.945.02c.2.392.41.783.64 1.175.23.39.465.772.705 1.143-.695-.102-1.365-.23-2.006-.386.18-.63.406-1.282.66-1.933zM17.92 16.32c.112.493.2.968.254 1.423.23 1.868-.054 3.32-.714 3.708-.147.09-.338.128-.563.128-1.012 0-2.514-.807-4.11-2.28.686-.72 1.37-1.536 2.02-2.44 1.107-.118 2.154-.3 3.113-.54zm-11.83.01c.96.234 2.006.415 3.107.532.66.905 1.345 1.727 2.035 2.446-1.595 1.483-3.092 2.295-4.11 2.295-.22-.005-.406-.05-.553-.132-.666-.38-.955-1.834-.73-3.703.054-.46.142-.944.25-1.438zm4.56.64c.44.02.89.034 1.345.034.46 0 .915-.01 1.36-.034-.44.572-.895 1.095-1.345 1.565-.455-.47-.91-.993-1.36-1.565z"/>
    </symbol>
    <symbol id="icon-php" viewBox="0 0 24 24">
      <path fill="#777BB4" d="M7.01 10.207h-.944l-.515 2.648h.838c.556 0 .97-.105 1.242-.314.272-.21.455-.559.55-1.049.092-.47.05-.802-.124-.995-.175-.193-.523-.29-1.047-.29zM12 5.688C5.373 5.688 0 8.514 0 12s5.373 6.313 12 6.313S24 15.486 24 12c0-3.486-5.373-6.312-12-6.312zm-3.26 7.451c-.261.25-.575.438-.917.551-.336.108-.765.164-1.285.164H5.357l-.327 1.681H3.652l1.23-6.326h2.65c.797 0 1.378.209 1.744.628.366.418.476 1.002.33 1.752a2.836 2.836 0 0 1-.305.847c-.143.255-.33.49-.561.703zm4.024.715l.543-2.799c.063-.318.039-.536-.068-.651-.107-.116-.336-.174-.687-.174H11.46l-.704 3.625H9.388l1.23-6.327h1.367l-.327 1.682h1.218c.767 0 1.295.134 1.586.401s.378.7.263 1.299l-.572 2.944h-1.389zm7.597-2.265a2.782 2.782 0 0 1-.305.847c-.143.255-.33.49-.561.703a2.44 2.44 0 0 1-.917.551c-.336.108-.765.164-1.286.164h-1.18l-.327 1.682h-1.378l1.23-6.326h2.649c.797 0 1.378.209 1.744.628.366.417.477 1.001.331 1.751zM17.766 10.207h-.943l-.516 2.648h.838c.557 0 .971-.105 1.242-.314.272-.21.455-.559.551-1.049.092-.47.049-.802-.125-.995s-.524-.29-1.047-.29z"/>
    </symbol>
    <symbol id="icon-mysql" viewBox="0 0 24 24">
      <path fill="#4479A1" d="M16.405 5.501c-.115 0-.193.014-.274.033v.013h.014c.054.104.146.18.214.273.054.107.1.214.154.32l.014-.015c.094-.066.14-.172.14-.333-.04-.047-.046-.094-.08-.14-.04-.067-.126-.1-.18-.153zM5.77 18.695h-.927a50.854 50.854 0 00-.27-4.41h-.008l-1.41 4.41H2.45l-1.4-4.41h-.01a72.892 72.892 0 00-.195 4.41H0c.055-1.966.192-3.81.41-5.53h1.15l1.335 4.064h.008l1.347-4.064h1.095c.242 2.015.384 3.86.428 5.53zm4.017-4.08c-.378 2.045-.876 3.533-1.492 4.46-.482.716-1.01 1.073-1.583 1.073-.153 0-.34-.046-.566-.138v-.494c.11.017.24.026.386.026.268 0 .483-.075.647-.222.197-.18.295-.382.295-.605 0-.155-.077-.47-.23-.944L6.23 14.615h.91l.727 2.36c.164.536.233.91.205 1.123.4-1.064.678-2.227.835-3.483zm12.325 4.08h-2.63v-5.53h.885v4.85h1.745zm-3.32.135l-1.016-.5c.09-.076.177-.158.255-.25.433-.506.648-1.258.648-2.253 0-1.83-.718-2.746-2.155-2.746-.704 0-1.254.232-1.65.697-.43.508-.646 1.256-.646 2.245 0 .972.19 1.686.574 2.14.35.41.877.615 1.583.615.264 0 .506-.033.725-.098l1.325.772.36-.622zM15.5 17.588c-.225-.36-.337-.94-.337-1.736 0-1.393.424-2.09 1.27-2.09.443 0 .77.167.977.5.224.362.336.936.336 1.723 0 1.404-.424 2.108-1.27 2.108-.445 0-.77-.167-.978-.5zm-1.658-.425c0 .47-.172.856-.516 1.156-.344.3-.803.45-1.384.45-.543 0-1.064-.172-1.573-.515l.237-.476c.438.22.833.328 1.19.328.332 0 .593-.073.783-.22a.754.754 0 00.3-.615c0-.33-.23-.61-.648-.845-.388-.213-1.163-.657-1.163-.657-.422-.307-.632-.636-.632-1.177 0-.45.157-.81.47-1.085.315-.278.72-.415 1.22-.415.512 0 .98.136 1.4.41l-.213.476a2.726 2.726 0 00-1.064-.23c-.283 0-.502.068-.654.206a.685.685 0 00-.248.524c0 .328.234.61.666.85.393.215 1.187.67 1.187.67.433.305.648.63.648 1.168zm9.382-5.852c-.535-.014-.95.04-1.297.188-.1.04-.26.04-.274.167.055.053.063.14.11.214.08.134.218.313.346.407.14.11.28.216.427.31.26.16.555.255.81.416.145.094.293.213.44.313.073.05.12.14.214.172v-.02c-.046-.06-.06-.147-.105-.214-.067-.067-.134-.127-.2-.193a3.223 3.223 0 00-.695-.675c-.214-.146-.682-.35-.77-.595l-.013-.014c.146-.013.32-.066.46-.106.227-.06.435-.047.67-.106.106-.027.213-.06.32-.094v-.06c-.12-.12-.21-.283-.334-.395a8.867 8.867 0 00-1.104-.823c-.21-.134-.476-.220-.697-.334-.08-.04-.214-.06-.26-.127-.12-.146-.19-.34-.275-.514a17.69 17.69 0 01-.547-1.163c-.12-.262-.193-.523-.34-.763-.69-1.137-1.437-1.826-2.586-2.5-.247-.14-.543-.2-.856-.274-.167-.008-.334-.02-.5-.027-.11-.047-.216-.174-.31-.235-.38-.24-1.364-.76-1.644-.072-.18.434.267.862.422 1.082.115.153.26.328.34.5.047.116.06.235.107.356.106.294.207.622.347.897.073.14.153.287.247.413.054.073.146.107.167.227-.094.136-.1.334-.154.5-.24.757-.146 1.693.194 2.25.107.166.362.534.703.393.3-.12.234-.5.32-.835.02-.08.007-.133.048-.187v.015c.094.188.188.367.274.555.206.328.566.668.867.895.16.12.287.328.487.402v-.02h-.015c-.043-.058-.1-.086-.154-.133a3.445 3.445 0 01-.35-.4 8.76 8.76 0 01-.747-1.218c-.11-.21-.202-.436-.29-.643-.04-.08-.04-.2-.107-.24-.1.146-.247.273-.32.453-.127.288-.14.642-.188 1.01-.027.007-.014 0-.027.014-.214-.052-.287-.274-.367-.46-.2-.475-.233-1.238-.06-1.785.047-.14.247-.582.167-.716-.042-.127-.174-.2-.247-.303a2.478 2.478 0 01-.24-.427c-.16-.374-.24-.788-.414-1.162-.08-.173-.22-.354-.334-.513-.127-.18-.267-.307-.368-.52-.033-.073-.08-.194-.027-.274.014-.054.042-.075.094-.09.088-.072.335.022.422.062.247.1.455.194.662.334.094.066.195.193.315.226h.14c.214.047.455.014.655.073.355.114.675.28.962.46a5.953 5.953 0 012.085 2.286c.08.154.115.295.188.455.14.33.313.663.455.982.14.315.275.636.476.897.1.14.502.213.682.286.133.06.34.115.46.188.23.14.454.3.67.454.11.076.443.243.463.378z"/>
    </symbol>
    <style>
      .title { font: 900 40px system-ui, -apple-system, BlinkMacSystemFont, "Segoe UI", sans-serif; fill: #10251a; letter-spacing: 0; }
      .label { font: 900 28px system-ui, -apple-system, BlinkMacSystemFont, "Segoe UI", sans-serif; fill: #10251a; letter-spacing: 0; }
      .small { font: 800 18px system-ui, -apple-system, BlinkMacSystemFont, "Segoe UI", sans-serif; fill: #64748b; letter-spacing: 0; }
      .tiny { font: 800 15px system-ui, -apple-system, BlinkMacSystemFont, "Segoe UI", sans-serif; fill: #64748b; letter-spacing: 0; }
      .white { fill: #fff; }
      .line { stroke: #334155; stroke-width: 6; stroke-linecap: round; marker-end: url(#arrow); }
      .line-green { stroke: #16a34a; stroke-width: 6; stroke-linecap: round; marker-end: url(#arrowGreen); }
      .line-soft { stroke: #94a3b8; stroke-width: 4; stroke-linecap: round; stroke-dasharray: 10 12; marker-end: url(#arrow); }
      .card { filter: url(#shadow); stroke: rgba(15, 23, 42, 0.08); stroke-width: 2; }
    </style>
  </defs>

  <rect width="1440" height="920" fill="url(#bg)"/>
  <text x="72" y="86" class="title">SmartPOS System</text>
  <text x="74" y="120" class="small">Frontend / Backend / DB</text>

  <!-- Browser -->
  <rect x="72" y="300" width="246" height="220" rx="28" fill="url(#browser)" class="card"/>
  <rect x="116" y="350" width="158" height="102" rx="12" fill="#ffffff" stroke="#cbd5e1" stroke-width="8"/>
  <rect x="140" y="460" width="110" height="12" rx="6" fill="#94a3b8"/>
  <circle cx="146" cy="375" r="7" fill="#ef4444"/>
  <circle cx="169" cy="375" r="7" fill="#f59e0b"/>
  <circle cx="192" cy="375" r="7" fill="#22c55e"/>
  <text x="133" y="580" class="label">Browser</text>

  <!-- Nginx gateway -->
  <g filter="url(#shadow)">
    <rect x="436" y="205" width="240" height="240" rx="48" fill="#ffffff"/>
    <use href="#icon-nginx" x="478" y="247" width="156" height="156"/>
  </g>
  <text x="487" y="530" class="label">Nginx</text>
  <text x="474" y="560" class="small">Web Server</text>

  <!-- React frontend -->
  <rect x="420" y="608" width="276" height="180" rx="32" fill="url(#react)" class="card"/>
  <use href="#icon-react" x="486" y="626" width="144" height="92"/>
  <text x="503" y="748" class="label">React</text>
  <text x="519" y="778" class="small">SPA</text>

  <!-- PHP API backend -->
  <rect x="790" y="608" width="276" height="180" rx="32" fill="url(#php)" class="card"/>
  <use href="#icon-php" x="840" y="632" width="176" height="86"/>
  <text x="888" y="748" class="label">API</text>
  <text x="891" y="778" class="small">PDO</text>

  <!-- MySQL DB -->
  <rect x="1160" y="585" width="216" height="226" rx="32" fill="url(#mysql)" class="card"/>
  <use href="#icon-mysql" x="1204" y="620" width="128" height="128"/>
  <text x="1215" y="824" class="label">MySQL</text>

  <!-- phpMyAdmin -->
  <rect x="1160" y="232" width="216" height="142" rx="28" fill="#ffffff" class="card"/>
  <rect x="1210" y="262" width="116" height="82" rx="14" fill="#eef6ff" stroke="#60a5fa" stroke-width="6"/>
  <path d="M1226 288H1310M1226 310H1310M1251 262V344" stroke="#60a5fa" stroke-width="6" stroke-linecap="round"/>
  <text x="1198" y="424" class="label">phpMyAdmin</text>
  <text x="1220" y="454" class="small">DB Admin</text>

  <!-- Docker boundary -->
  <rect x="382" y="158" width="1026" height="696" rx="46" stroke="#94a3b8" stroke-width="4" stroke-dasharray="14 14"/>
  <rect x="414" y="156" width="190" height="44" rx="22" fill="#e2e8f0"/>
  <text x="448" y="185" class="small">Docker Compose</text>

  <!-- Flow lines -->
  <path d="M318 410C360 398 388 375 424 348" class="line"/>
  <path d="M556 476V597" class="line-green"/>
  <path d="M682 338C762 377 838 467 894 594" class="line"/>
  <path d="M1066 699H1146" class="line"/>
  <path d="M1268 454V570" class="line-soft"/>

  <!-- Small route tags -->
  <rect x="344" y="332" width="92" height="36" rx="18" fill="#ffffff" stroke="#cbd5e1" stroke-width="2"/>
  <text x="365" y="356" class="tiny">HTTPS</text>

  <rect x="583" y="532" width="106" height="36" rx="18" fill="#dcfce7" stroke="#86efac" stroke-width="2"/>
  <text x="607" y="556" class="tiny">static</text>

  <rect x="746" y="432" width="82" height="36" rx="18" fill="#ffffff" stroke="#cbd5e1" stroke-width="2"/>
  <text x="766" y="456" class="tiny">/api</text>

  <rect x="1084" y="654" width="70" height="36" rx="18" fill="#ffffff" stroke="#cbd5e1" stroke-width="2"/>
  <text x="1106" y="678" class="tiny">SQL</text>

  <!-- Dev note -->
  <rect x="72" y="690" width="246" height="118" rx="24" fill="#ffffff" stroke="#cbd5e1" stroke-width="2"/>
  <text x="116" y="740" class="label">Vite</text>
  <text x="104" y="772" class="small">Dev Server</text>
  <path d="M318 748H407" class="line-soft"/>
</svg>
